<svg width="159" height="71" viewBox="0 0 159 71" fill="none" xmlns="http://www.w3.org/2000/svg">
<path d="M56.1458 46.6696H62.7979V27.7674C62.7979 17.949 54.7628 14.9649 48.0723 14.9746C43.2705 14.9746 39.1665 17.5415 39.1665 17.5415V0.285423H32.5176V46.6696H39.173V28.2358C39.173 27.3279 39.173 18.5746 47.6658 18.5746C56.1585 18.5746 56.1458 25.6722 56.1458 28.2358V46.6696ZM71.4315 29.0829V28.2295L71.4539 28.2487C71.4539 27.3406 71.4539 18.5875 79.9468 18.5875C88.4396 18.5875 88.4268 25.6851 88.4268 28.2487L88.4076 29.0829H71.4315ZM71.4315 32.7184H95.0629C95.0629 28.2263 95.0629 14.9682 79.9212 14.9682C64.7794 14.9682 64.7794 28.2487 64.7794 30.9472C64.7794 33.6456 64.7794 46.647 80.5262 46.647C86.4804 46.647 89.8097 44.4748 89.7905 44.4748C89.7712 44.4748 88.4076 41.77 88.4076 41.7731C88.4076 41.7763 85.9555 43.0566 80.7566 43.0566C71.4315 43.0566 71.4315 32.7408 71.4315 32.7408V32.7184ZM120.41 33.3826C120.41 35.9494 120.41 43.0438 111.93 43.0438C103.45 43.0438 103.434 34.2905 103.434 33.3826V28.2487C103.434 27.3375 103.434 18.5875 111.93 18.5875C120.426 18.5875 120.41 25.6818 120.41 28.2487V33.3826ZM127.049 30.9472V28.2423C127.049 17.7372 119.187 14.9809 112.324 14.9809C107.522 14.9809 103.415 17.5479 103.415 17.5479V0.285423H96.7659V30.9472C96.7659 34.342 96.7659 46.647 112.365 46.647C124.709 46.647 127.049 39.1357 127.049 30.9472ZM152.3 28.2616L152.281 29.0958H135.315V28.2423L135.335 28.2616C135.335 27.3535 135.335 18.6003 143.831 18.6003C152.327 18.6003 152.311 25.6978 152.311 28.2616H152.3ZM158.942 32.7312C158.942 28.2392 158.942 14.9809 143.804 14.9809C128.666 14.9809 128.663 28.2552 128.663 30.9472C128.663 33.6393 128.663 46.647 144.413 46.647C150.364 46.647 153.696 44.4748 153.674 44.4748L152.291 41.7731C152.291 41.7507 149.839 43.0566 144.641 43.0566C135.315 43.0566 135.315 32.7408 135.315 32.7408L158.942 32.7312Z" fill="#E4007E"/>
<path d="M3.89288 60.6538C4.48511 62.3577 9.13647 62.3224 15.971 59.3704C23.7533 56.0302 26.6023 52.8632 25.7476 51.0023C24.7615 48.8556 15.3789 46.0128 11.0028 48.1915C5.79441 50.7841 3.28145 58.8826 3.89288 60.6378" fill="white"/>
<path d="M0.00743547 55.2195C0.218715 57.0901 5.11016 58.6655 12.9531 57.6292C21.8877 56.4516 25.6235 54.0803 25.1753 51.9788C24.6568 49.5594 15.5333 44.1048 10.437 45.0673C4.37708 46.2097 -0.210247 53.3071 0.00743547 55.2322" fill="white"/>
<path d="M23.647 54.6384C26.4929 54.1795 29.5405 47.4542 27.0755 35.6593C24.268 22.2311 19.431 16.5294 16.7548 17.0107C12.398 17.7936 6.49498 35.5149 7.53217 44.3804C8.61738 53.6854 20.7148 55.1133 23.647 54.6481" fill="white"/>
<path d="M21.7176 67.9396C20.6035 67.5866 20.6419 63.7234 22.1177 59.3405C23.7952 54.3511 25.639 52.4932 26.8747 53.0099C28.2928 53.6034 30.6361 59.5169 29.5029 62.3148C28.1552 65.6583 22.8668 68.2861 21.7176 67.9268" fill="white"/>
<path d="M26.2643 70.285C25.128 70.3331 23.8282 66.6527 23.7258 61.6665C23.6105 55.9905 24.9358 53.4299 26.2324 53.5069C27.7304 53.5903 31.8408 58.7434 31.7319 62.0131C31.6072 65.8987 27.4392 70.2303 26.2643 70.285Z" fill="white"/>
<path d="M24.4501 55.3645C24.2323 53.5324 27.3503 50.3174 35.5135 49.4927C44.2527 48.6135 48.203 50.6222 48.3791 52.3549C48.6607 55.1817 39.214 62.0867 33.5894 63.1615C27.68 64.2846 24.6741 57.2545 24.4501 55.3645Z" fill="white"/>
<path d="M26.9792 53.2496C26.8685 53.2038 26.7501 53.1798 26.6302 53.179C25.545 53.179 24.0373 55.0497 22.6096 59.3011C21.2106 63.4723 21.5659 66.1804 22.5583 66.4916C23.5507 66.8029 27.9043 65.1633 29.1721 61.9996C30.2349 59.3171 28.2404 53.7822 26.9792 53.2496Z" fill="url(#paint0_linear)"/>
<path d="M25.5132 50.8423C24.7833 49.3535 19.4692 47.4508 15.1252 47.4508C13.854 47.4085 12.5883 47.637 11.4118 48.1214C6.46912 50.4315 4.23467 57.4905 4.8333 59.0981C5.41592 60.6575 9.78237 60.9816 16.2712 58.3762C23.6757 55.4113 26.3486 52.5524 25.5132 50.8423Z" fill="url(#paint1_linear)"/>
<path d="M12.644 45.1308C12.2328 45.1287 11.8223 45.1652 11.4179 45.2399C5.69739 46.334 1.53581 53.0561 1.7375 54.8659C1.93276 56.6338 6.36643 58.1162 13.7676 57.1119C22.1996 55.9825 25.7274 53.7267 25.3081 51.7406C24.8663 49.655 17.5579 45.134 12.644 45.1308Z" fill="url(#paint2_linear)"/>
<path d="M23.0364 54.4986C25.6743 54.0398 28.5553 47.6803 26.3817 36.6008C24.0161 24.5588 19.8768 19.717 17.3479 19.717C17.2308 19.7162 17.1139 19.7269 16.9989 19.749C12.959 20.5288 7.3505 36.6521 8.22123 44.9882C9.13998 53.7478 20.3154 54.9702 23.0364 54.4986Z" fill="url(#paint3_linear)"/>
<path d="M26.5151 68.4223C27.6579 68.3742 31.4098 65.1462 31.5345 61.4948C31.6402 58.4242 27.6387 53.5822 26.1758 53.5053H26.1246C24.8824 53.5053 23.8581 55.9149 23.9669 61.1771C24.0629 65.8617 25.4043 68.4865 26.5151 68.4223Z" fill="url(#paint4_linear)"/>
<path d="M38.5758 49.8955C37.4874 49.8955 36.2837 49.9533 34.9584 50.0848C27.9381 50.7683 24.6537 53.6464 24.8522 55.3116C25.0571 57.0315 27.8005 63.529 33.2074 62.5087C38.3517 61.5461 46.9726 55.2603 46.7261 52.6902C46.5949 51.3747 44.0563 49.8955 38.5758 49.8955Z" fill="url(#paint5_linear)"/>
<path d="M132.447 54.9897H131.927V60.2143H132.447V54.9897ZM120.091 54.9897H119.568V60.2143H120.091V54.9897ZM108.614 54.9897H108.091V60.2143H108.614V54.9897ZM75.7559 60.2143H79.8059V59.7875H76.407V59.7658C76.6032 59.5258 76.7777 59.289 76.9646 59.0492L79.7685 55.3356V54.9897H75.9864V55.4135H79.1735V55.4353C78.9678 55.6969 78.7716 55.9369 78.5752 56.1862L75.7714 59.8965L75.7559 60.2143ZM85.3545 58.1021C85.3579 58.2493 85.3402 58.3962 85.3015 58.5382C85.2169 58.9208 85.0051 59.2636 84.7007 59.5102C84.3963 59.7569 84.0173 59.8931 83.6253 59.8965C82.3792 59.8965 81.7936 58.8186 81.7936 57.6442C81.7936 56.2951 82.5132 55.3045 83.6627 55.3045C84.0406 55.2998 84.4088 55.4234 84.7075 55.6548C85.0061 55.8861 85.2177 56.2118 85.3077 56.5786C85.3453 56.7347 85.3631 56.8948 85.3607 57.0552L85.3545 58.1021ZM85.451 60.2143H85.9214C85.8872 59.8436 85.8778 59.3857 85.8778 58.9931V52.485H85.3545V55.7936H85.3326C85.1639 55.4938 84.9143 55.2475 84.6126 55.0823C84.3108 54.9171 83.9689 54.8396 83.6253 54.859C82.3388 54.859 81.2609 55.9462 81.2732 57.6878C81.2732 59.2454 82.2296 60.3234 83.5256 60.3234C83.912 60.3417 84.2952 60.246 84.6275 60.0483C84.9599 59.8505 85.2268 59.5595 85.3949 59.2112H85.4168L85.451 60.2143ZM90.4981 55.3698C90.5828 55.3653 90.6677 55.3726 90.7504 55.3917V54.89C90.6783 54.8777 90.6053 54.8704 90.5323 54.8683C90.1935 54.8854 89.8686 55.008 89.6031 55.2194C89.3377 55.4306 89.1452 55.7196 89.0525 56.0459H89.0182L88.9964 54.9897H88.5197C88.5508 55.5007 88.5633 56.0334 88.5633 56.5475V60.205H89.0837V57.3201C89.0817 57.1519 89.0963 56.9839 89.1272 56.8186C89.2705 55.9805 89.7815 55.3606 90.4981 55.3606V55.3698ZM96.5481 57.5694C96.5481 58.909 95.6883 59.8872 94.601 59.8872C93.5137 59.8872 92.6975 58.909 92.6975 57.6036C92.6975 56.4821 93.2957 55.2951 94.6322 55.2951C95.9687 55.2951 96.5481 56.613 96.5481 57.5694ZM97.0716 57.5382C97.0716 55.9462 96.0934 54.859 94.6446 54.859C93.3486 54.859 92.1741 55.8497 92.1741 57.6348C92.1741 59.2673 93.2178 60.3234 94.5668 60.3234C95.7319 60.3234 97.0591 59.4854 97.0591 57.5382H97.0716ZM104.315 60.205L106.056 54.9805H105.536L104.602 57.9401C104.396 58.5631 104.231 59.0928 104.122 59.5819H104.1C103.972 59.0928 103.807 58.5601 103.589 57.9276L102.589 54.9805H102.109L101.062 57.9494C100.857 58.5476 100.673 59.1053 100.542 59.5819H100.52C100.399 59.0835 100.246 58.5601 100.072 57.9494L99.19 54.9805H98.6573L100.268 60.205H100.726L101.76 57.3077C101.98 56.7197 102.17 56.1208 102.327 55.5132H102.349C102.489 56.102 102.661 56.6659 102.891 57.2983L103.882 60.205H104.315ZM108.751 53.4881C108.755 53.4311 108.747 53.3738 108.728 53.3197C108.709 53.2657 108.679 53.216 108.641 53.1733C108.603 53.1308 108.557 53.0962 108.505 53.0716C108.453 53.0471 108.397 53.0329 108.34 53.0301C108.223 53.0358 108.113 53.0869 108.034 53.1724C107.954 53.2579 107.911 53.3713 107.913 53.4881C107.908 53.5462 107.915 53.6046 107.934 53.6599C107.953 53.7151 107.983 53.7657 108.022 53.8087C108.062 53.8516 108.11 53.8858 108.163 53.9093C108.216 53.9328 108.274 53.9448 108.332 53.9448C108.39 53.9448 108.448 53.9328 108.501 53.9093C108.555 53.8858 108.603 53.8516 108.642 53.8087C108.681 53.7657 108.712 53.7151 108.73 53.6599C108.749 53.6046 108.756 53.5462 108.751 53.4881ZM114.727 57.1332H111.409C111.505 56.3263 112.007 55.3045 113.16 55.3045C114.406 55.3045 114.717 56.4041 114.717 57.1332H114.727ZM115.238 57.5475C115.259 57.4452 115.268 57.3404 115.263 57.236C115.263 56.4851 114.935 54.8745 113.225 54.8745C111.876 54.8745 110.876 55.9618 110.876 57.7033C110.876 59.2392 111.811 60.3265 113.312 60.3265C113.88 60.3514 114.445 60.2359 114.957 59.99L114.826 59.5881C114.375 59.8025 113.877 59.9031 113.378 59.881C112.29 59.881 111.387 59.2174 111.387 57.5538L115.238 57.5475ZM120.241 53.4975C120.245 53.4402 120.237 53.3828 120.218 53.3286C120.2 53.2745 120.17 53.2245 120.132 53.1818C120.093 53.1391 120.047 53.1047 119.995 53.0801C119.943 53.0557 119.887 53.0419 119.83 53.0396C119.713 53.0451 119.603 53.0962 119.523 53.1818C119.443 53.2673 119.4 53.3806 119.403 53.4975C119.398 53.5556 119.405 53.614 119.424 53.6692C119.443 53.7244 119.473 53.775 119.512 53.818C119.551 53.8609 119.599 53.8953 119.653 53.9187C119.706 53.9422 119.764 53.9543 119.822 53.9543C119.88 53.9543 119.938 53.9422 119.991 53.9187C120.045 53.8953 120.092 53.8609 120.132 53.818C120.171 53.775 120.201 53.7244 120.22 53.6692C120.239 53.614 120.246 53.5556 120.241 53.4975ZM129.011 57.5475C129.011 58.9402 128.325 59.909 127.142 59.909C126.748 59.911 126.365 59.7814 126.054 59.5411C125.742 59.3005 125.52 58.963 125.422 58.5818C125.391 58.4459 125.377 58.3068 125.378 58.1675V57.1457C125.387 56.9947 125.413 56.8452 125.456 56.7002C125.551 56.3107 125.772 55.9637 126.085 55.7132C126.397 55.4629 126.785 55.3236 127.185 55.3169C128.372 55.3169 129.023 56.373 129.023 57.5475H129.011ZM129.547 57.5258C129.547 55.993 128.643 54.8807 127.294 54.8807C126.901 54.8655 126.512 54.9619 126.171 55.1586C125.83 55.3555 125.552 55.6447 125.369 55.993H125.347L125.313 55.0022H124.811C124.846 55.5007 124.855 56.0147 124.855 56.6658V62.3795H125.378V59.3763H125.4C125.58 59.6829 125.841 59.9348 126.153 60.1055C126.465 60.276 126.817 60.3588 127.173 60.3452C128.438 60.3452 129.547 59.3857 129.547 57.5258ZM132.612 53.51C132.616 53.4528 132.607 53.3955 132.588 53.3416C132.57 53.2875 132.54 53.2378 132.502 53.1952C132.464 53.1527 132.418 53.118 132.366 53.0934C132.314 53.0689 132.258 53.0548 132.201 53.052C132.084 53.0576 131.974 53.1086 131.895 53.1943C131.815 53.2798 131.772 53.393 131.774 53.51C131.769 53.568 131.776 53.6265 131.795 53.6817C131.814 53.7368 131.844 53.7875 131.883 53.8304C131.923 53.8734 131.971 53.9077 132.024 53.9312C132.077 53.9547 132.135 53.9667 132.193 53.9667C132.252 53.9667 132.309 53.9547 132.362 53.9312C132.416 53.9077 132.464 53.8734 132.503 53.8304C132.543 53.7875 132.573 53.7368 132.591 53.6817C132.61 53.6265 132.618 53.568 132.612 53.51ZM138.685 57.1457H135.363C135.463 56.3388 135.961 55.3169 137.104 55.3169C138.378 55.3169 138.685 56.4166 138.662 57.1457H138.685ZM139.186 57.56C139.191 57.4562 139.191 57.3522 139.186 57.2484C139.186 56.4976 138.874 54.887 137.164 54.887C135.812 54.887 134.812 55.9743 134.812 57.7158C134.812 59.2516 135.747 60.3389 137.247 60.3389C137.379 60.3385 137.51 60.3313 137.641 60.3172C137.261 60.557 136.802 61.0461 136.802 61.5634C136.798 61.6768 136.819 61.7899 136.863 61.8948C136.907 61.9996 136.973 62.0936 137.056 62.1703C137.141 62.2471 137.241 62.3046 137.348 62.3391C137.457 62.3737 137.571 62.3843 137.684 62.3703C137.938 62.3785 138.189 62.3101 138.404 62.1739L138.316 61.8625C138.149 61.9367 137.967 61.9738 137.784 61.9714C137.717 61.9754 137.649 61.9647 137.587 61.9402C137.525 61.9156 137.467 61.8777 137.421 61.829C137.375 61.7805 137.339 61.7223 137.318 61.6587C137.295 61.595 137.289 61.5274 137.295 61.4605C137.295 60.9496 137.918 60.3826 138.382 60.1988C138.557 60.1476 138.728 60.082 138.893 60.0024L138.762 59.6006C138.307 59.8152 137.807 59.9157 137.304 59.8935C136.227 59.8935 135.322 59.2299 135.322 57.5662L139.186 57.56ZM145.417 60.2268L143.012 57.1674L145.124 54.9867H144.501L142.65 56.9213C142.488 57.0958 142.283 57.3357 142.152 57.5009H142.13V52.485H141.607V60.2143H142.13V58.0336L142.662 57.4665L144.797 60.2113L145.417 60.2268ZM151.118 60.2268H151.641V57.0771C151.641 55.1175 150.311 54.8683 149.812 54.8683C149.442 54.8603 149.078 54.9563 148.761 55.1451C148.443 55.334 148.184 55.6084 148.015 55.9369H147.993L147.961 55.0022H147.472C147.504 55.4135 147.516 55.7749 147.516 56.2485V60.2237H148.037V56.9806C148.041 56.8228 148.064 56.6661 148.102 56.5132C148.203 56.1752 148.408 55.8775 148.688 55.6623C148.966 55.447 149.307 55.3252 149.66 55.3138C150.738 55.3138 151.109 56.1737 151.109 57.1207L151.118 60.2268ZM158.343 57.5787C158.343 58.9183 157.482 59.8965 156.395 59.8965C155.308 59.8965 154.489 58.9183 154.489 57.613C154.489 56.4914 155.087 55.3045 156.427 55.3045C157.766 55.3045 158.343 56.6222 158.343 57.5787ZM158.866 57.5475C158.866 55.9556 157.884 54.8683 156.439 54.8683C155.144 54.8683 153.969 55.8589 153.969 57.6442C153.969 59.2765 155.012 60.3327 156.361 60.3327C157.526 60.3327 158.853 59.4947 158.853 57.5475" fill="#E6007E"/>
<defs>
<linearGradient id="paint0_linear" x1="25.8347" y1="59.731" x2="23.4181" y2="66.7682" gradientUnits="userSpaceOnUse">
<stop stop-color="#FFCC00"/>
<stop offset="0.55" stop-color="#F49205"/>
<stop offset="1" stop-color="#EC6608"/>
</linearGradient>
<linearGradient id="paint1_linear" x1="16.3992" y1="53.3795" x2="11.6553" y2="58.4895" gradientUnits="userSpaceOnUse">
<stop stop-color="#FFCC00"/>
<stop offset="0.55" stop-color="#F49205"/>
<stop offset="1" stop-color="#EC6608"/>
</linearGradient>
<linearGradient id="paint2_linear" x1="5.32617" y1="51.1209" x2="14.8458" y2="51.2351" gradientUnits="userSpaceOnUse">
<stop stop-color="#E50069"/>
<stop offset="0.42" stop-color="#E62242"/>
<stop offset="1" stop-color="#E84E0F"/>
</linearGradient>
<linearGradient id="paint3_linear" x1="15.9038" y1="26.1066" x2="24.9243" y2="50.8354" gradientUnits="userSpaceOnUse">
<stop stop-color="#E6007E"/>
<stop offset="0.35" stop-color="#E4017D"/>
<stop offset="0.52" stop-color="#DC047C"/>
<stop offset="0.66" stop-color="#CF0A79"/>
<stop offset="0.77" stop-color="#BC1274"/>
<stop offset="0.87" stop-color="#A41C6E"/>
<stop offset="0.96" stop-color="#872967"/>
<stop offset="1" stop-color="#792F64"/>
</linearGradient>
<linearGradient id="paint4_linear" x1="28.1001" y1="67.8011" x2="25.0326" y2="57.5307" gradientUnits="userSpaceOnUse">
<stop stop-color="#E50069"/>
<stop offset="0.42" stop-color="#E62242"/>
<stop offset="1" stop-color="#E84E0F"/>
</linearGradient>
<linearGradient id="paint5_linear" x1="48.5778" y1="56.2273" x2="28.002" y2="55.799" gradientUnits="userSpaceOnUse">
<stop stop-color="#E6007E"/>
<stop offset="0.35" stop-color="#E4017D"/>
<stop offset="0.52" stop-color="#DC047C"/>
<stop offset="0.66" stop-color="#CF0A79"/>
<stop offset="0.77" stop-color="#BC1274"/>
<stop offset="0.87" stop-color="#A41C6E"/>
<stop offset="0.96" stop-color="#872967"/>
<stop offset="1" stop-color="#792F64"/>
</linearGradient>
</defs>
</svg>
